<svg id="Layer_3" data-name="Layer 3" xmlns="http://www.w3.org/2000/svg" viewBox="0 0 29 53"><defs><style>.cls-1{fill:#b5e2eb;stroke:#b5e2eb;stroke-miterlimit:10;stroke-width:4.4px;}.cls-2{fill:#fbb03b;}.cls-3{fill:#fdd179;}.cls-4{fill:#f57c00;}</style></defs><title>Artboard 8</title><path class="cls-1" d="M16.15,50.33H16l-.4,0a7.21,7.21,0,0,1-1.23-.15l-1.59-.44c-.51-.15-1-.29-1.49-.41a6.9,6.9,0,0,1-3.29-2,1.52,1.52,0,0,1-.43-.91c0-.23,0-.46,0-.67a5.92,5.92,0,0,0-.08-1c0-.16-.06-.32-.09-.48a3.44,3.44,0,0,0-.63-1.72,9.71,9.71,0,0,1-2-3.85c-.48-1.53-1-3.08-1.45-4.59-.2-.64-.41-1.29-.61-1.94l0-.29V30.76l0-.21a9.09,9.09,0,0,1,1.59-3.38,1.26,1.26,0,0,0,.28-.87,8.77,8.77,0,0,1,1.16-4.9,5.32,5.32,0,0,0,.69-2.31,7.28,7.28,0,0,1,.3-2c.32-1,.67-1.92,1-2.84.17-.45.33-.9.49-1.35a1.15,1.15,0,0,0,.06-.17c0-.61-.1-1.26-.18-2.05,0-.21,0-.42-.07-.64a15.05,15.05,0,0,1-.07-4.3l0-.17a3.31,3.31,0,0,1,2.32-3.08l.43-.06h.41L12,2.8l.26.26a5,5,0,0,1,.79.89,5.72,5.72,0,0,1,.59,1.34l0,.13a3,3,0,0,1,.88-.14A2.34,2.34,0,0,1,16.92,7a3.27,3.27,0,0,1,0,1.77C16.5,10.2,16,11.63,15.5,13a.55.55,0,0,0,0,.4c.35,1,.68,2,1,3,.22.69.46,1.41.7,2.11h0a3.14,3.14,0,0,1,1.87-.6,3.21,3.21,0,0,1,1.07.18,3.75,3.75,0,0,1,2.7,3.52c0,.78,0,1.5-.1,2.18a4.11,4.11,0,0,1,2.67,3.15c.23,1.5.43,3,.62,4.48.07.56.15,1.12.22,1.68.05.38.1.76.14,1.14,0,.17,0,.34.07.51v.94l0,.2c0,.08,0,.15-.05.23s-.07.3-.1.45a23,23,0,0,1-2.51,6.53A8.34,8.34,0,0,0,23,45.36a7.82,7.82,0,0,0-.1,1.64v.65a1.8,1.8,0,0,1-1.41,1.75l-.61.18c-.42.12-.86.26-1.33.35s-1.12.2-1.66.28l-.67.1-.22,0Z"/><path class="cls-1" d="M10.67,3.51h.41a7,7,0,0,1,.92,1,5.88,5.88,0,0,1,.53,1.27c.14.42.24.86.37,1.36.37-.22.65-.41,1-.56a1.22,1.22,0,0,1,1.85.67,2.24,2.24,0,0,1,0,1.23c-.43,1.41-.92,2.8-1.42,4.19a1.44,1.44,0,0,0,0,1c.58,1.7,1.12,3.4,1.7,5.1a14.15,14.15,0,0,0,.55,1.35c.15.34.35.31.59.05a10.44,10.44,0,0,1,.73-.76,1.78,1.78,0,0,1,1.79-.35,2.67,2.67,0,0,1,1.93,2.5c0,.76,0,1.51-.11,2.26,0,.45.16.69.61.87a3,3,0,0,1,2.08,2.36c.32,2,.56,4.09.84,6.13.07.55.13,1.1.2,1.65v.82l-.15.69a22.17,22.17,0,0,1-2.41,6.25,9.39,9.39,0,0,0-.93,2.56,12.71,12.71,0,0,0-.12,2.47.67.67,0,0,1-.54.73c-.62.17-1.23.38-1.86.52s-1.5.24-2.26.36h-.82a9.62,9.62,0,0,1-1.43-.14c-1-.25-2-.6-3.08-.85A5.57,5.57,0,0,1,9,46.57a.43.43,0,0,1-.13-.27,14.91,14.91,0,0,0-.14-1.78,5.14,5.14,0,0,0-1-2.67A9.16,9.16,0,0,1,5.9,38.39C5.23,36.21,4.53,34,3.84,31.85V30.76a8.42,8.42,0,0,1,1.43-3,2.25,2.25,0,0,0,.46-1.54,7.87,7.87,0,0,1,1.06-4.36,6.3,6.3,0,0,0,.8-2.73,6.06,6.06,0,0,1,.26-1.74c.45-1.4,1-2.78,1.48-4.16a1.28,1.28,0,0,0,.12-.53c0-.71-.11-1.41-.19-2.12a17.07,17.07,0,0,1-.14-4.68C9.29,4.92,9.38,3.91,10.67,3.51Z"/><path class="cls-1" d="M16,50.37c-.13,0-.26,0-.4,0a6.43,6.43,0,0,1-1.24-.15c-.55-.13-1.08-.29-1.59-.44s-1-.29-1.49-.41a6.92,6.92,0,0,1-3.32-2,1.58,1.58,0,0,1-.44-.94c0-.23,0-.46,0-.67a6.11,6.11,0,0,0-.08-1c0-.16-.07-.32-.1-.48a3.35,3.35,0,0,0-.61-1.7,9.66,9.66,0,0,1-2-3.85c-.47-1.53-1-3.08-1.44-4.58l-.06-.2c-.19-.58-.38-1.17-.56-1.76l0-.14V30.76l0-.2a9.22,9.22,0,0,1,1.59-3.41,1.17,1.17,0,0,0,.27-.85,8.9,8.9,0,0,1,1.17-4.91,5.32,5.32,0,0,0,.69-2.3,7,7,0,0,1,.31-2c.31-1,.66-1.92,1-2.85.17-.45.33-.89.49-1.34,0-.05,0-.12.06-.16,0-.61-.1-1.26-.18-2,0-.22-.05-.43-.08-.64a15.57,15.57,0,0,1-.06-4.32l0-.16a3.33,3.33,0,0,1,2.36-3.12l.21,0h0l.22,0h.43l1,.39h0l.27.26a5.11,5.11,0,0,1,.8.9,5.34,5.34,0,0,1,.58,1.35l0,.08a3.12,3.12,0,0,1,.85-.12,2.87,2.87,0,0,1,1,.17A2.3,2.3,0,0,1,17,7a3.21,3.21,0,0,1,0,1.79c-.44,1.46-.95,2.89-1.44,4.23a.5.5,0,0,0,0,.38c.35,1,.68,2,1,3l0,.06c.21.66.44,1.35.67,2a3.21,3.21,0,0,1,1.84-.57,3.33,3.33,0,0,1,1.09.19,3.8,3.8,0,0,1,2.73,3.56c0,.77,0,1.48-.1,2.15a4.13,4.13,0,0,1,2.67,3.17c.23,1.5.43,3,.62,4.49h0c.08.55.15,1.11.22,1.66.05.39.1.79.14,1.14,0,0,.05.35.07.52v.93l0,.2a1.84,1.84,0,0,1-.05.25h0c0,.14-.07.29-.1.44a23.1,23.1,0,0,1-2.51,6.54A8.33,8.33,0,0,0,23,45.36a8,8,0,0,0-.1,1.64v.65a1.85,1.85,0,0,1-1.44,1.79c-.21.05-.41.12-.62.18-.42.13-.85.26-1.32.36s-1.13.2-1.67.27l-.67.1-.22,0H16ZM10.1,46A4.06,4.06,0,0,0,12,47.16c.55.13,1.09.29,1.61.44s1,.29,1.47.41a4.34,4.34,0,0,0,.7.07l.44,0h.65l.58-.09h0c.5-.07,1-.14,1.48-.24s.72-.19,1.09-.3l.32-.1V47A9.28,9.28,0,0,1,20.48,45a10.52,10.52,0,0,1,1-2.83,21.16,21.16,0,0,0,2.31-6c0-.17.07-.34.11-.5l0-.12V34.9l-.06-.46c0-.35-.09-.74-.14-1.12-.07-.56-.14-1.12-.22-1.67v0c-.19-1.45-.38-2.95-.61-4.42a1.87,1.87,0,0,0-1.33-1.48,1.85,1.85,0,0,1-1.37-2c.06-.68.1-1.39.1-2.18a1.51,1.51,0,0,0-1.12-1.44l-.11,0a.35.35,0,0,0-.24.08c-.2.19-.41.42-.67.7a1.76,1.76,0,0,1-1.33.63h-.22a1.6,1.6,0,0,1-1.26-1l-.06-.15c-.18-.41-.37-.84-.52-1.29-.25-.72-.49-1.46-.71-2.12v0c-.31-1-.64-2-1-2.94a2.4,2.4,0,0,1,0-1.71c.47-1.32,1-2.72,1.4-4.14a1.19,1.19,0,0,0,0-.62L14,7.83l-.36.22-.07,0-1.9-.65,0-.06-.12-.46h0c-.07-.3-.15-.58-.23-.83l-.06-.16A3.93,3.93,0,0,0,10.87,5a.87.87,0,0,0-.16-.2,2.86,2.86,0,0,0-.28,1l0,.17a13.56,13.56,0,0,0,.08,3.76c0,.22,0,.44.07.66.09.83.15,1.51.19,2.16a2.25,2.25,0,0,1-.17.92l-.49,1.35v0c-.33.9-.68,1.84-1,2.77a4.86,4.86,0,0,0-.21,1.46A7.36,7.36,0,0,1,8,22.32a6.91,6.91,0,0,0-1,3.81,3.21,3.21,0,0,1-.66,2.22,7.33,7.33,0,0,0-1.22,2.53v.82l.52,1.66,0,.15c.48,1.5,1,3.06,1.44,4.59a7.75,7.75,0,0,0,1.59,3,5.25,5.25,0,0,1,1.14,2.73c0,.15,0,.29.08.44a8,8,0,0,1,.13,1.32C10.09,45.76,10.09,45.88,10.1,46Z"/><path class="cls-1" d="M16.15,49.28l-.46,0a5.47,5.47,0,0,1-1-.12c-.52-.12-1-.27-1.53-.42s-1-.3-1.55-.43A5.51,5.51,0,0,1,8.92,46.6a.54.54,0,0,1-.15-.3l0-.62a6.3,6.3,0,0,0-.1-1.15l-.09-.46a4.23,4.23,0,0,0-.87-2.2A9,9,0,0,1,5.85,38.4c-.47-1.53-1-3.09-1.44-4.6-.21-.64-.41-1.29-.62-1.94h0V30.76a8.34,8.34,0,0,1,1.43-3,2.16,2.16,0,0,0,.46-1.51,8,8,0,0,1,1.06-4.39,6.27,6.27,0,0,0,.8-2.71,5.82,5.82,0,0,1,.26-1.75c.3-.95.65-1.9,1-2.81.17-.46.33-.91.5-1.36a1.45,1.45,0,0,0,.11-.51c0-.63-.1-1.3-.19-2.11,0-.22-.05-.43-.07-.65a14.44,14.44,0,0,1-.07-4l0-.17c.15-.91.3-1.85,1.55-2.25h.45l0,0,.3.29a4.1,4.1,0,0,1,.63.69,4.76,4.76,0,0,1,.47,1.12l.06.16c.09.29.17.59.25.9,0,.13.07.26.1.4l.28-.18c.23-.13.42-.25.63-.35a1.51,1.51,0,0,1,1.22-.1,1.13,1.13,0,0,1,.7.8,2.27,2.27,0,0,1,0,1.26c-.44,1.44-.94,2.86-1.42,4.18a1.43,1.43,0,0,0,0,1c.34,1,.67,2,1,3l.71,2.12c.13.4.31.81.48,1.2l.07.14c.06.14.13.21.2.22s.18,0,.3-.18c.27-.3.5-.55.73-.76A1.84,1.84,0,0,1,19.71,19a2.71,2.71,0,0,1,2,2.54c0,.82-.05,1.56-.11,2.26,0,.41.13.64.58.82a3.07,3.07,0,0,1,2.11,2.4c.23,1.48.43,3,.62,4.46.07.56.14,1.12.22,1.68.05.37.1.76.14,1.13l.06.52v.82a1.89,1.89,0,0,1-.05.23c0,.15-.07.31-.1.47a22.18,22.18,0,0,1-2.41,6.26,9.47,9.47,0,0,0-.93,2.55A8.67,8.67,0,0,0,21.68,47v.62a.71.71,0,0,1-.58.77l-.64.19c-.4.12-.8.24-1.21.33s-1.06.19-1.58.26l-.69.1ZM3.9,31.85c.2.64.4,1.28.61,1.93.48,1.51,1,3.06,1.44,4.6a8.88,8.88,0,0,0,1.81,3.44,4.22,4.22,0,0,1,.89,2.24l.09.45a7.59,7.59,0,0,1,.11,1.16c0,.21,0,.42,0,.62a.35.35,0,0,0,.12.25,5.58,5.58,0,0,0,2.65,1.67c.53.12,1,.28,1.56.42s1,.3,1.53.43a6,6,0,0,0,1,.11l.45,0H17l.68-.1c.52-.07,1.05-.15,1.57-.26s.81-.21,1.2-.32l.65-.19a.63.63,0,0,0,.51-.69V47a8.28,8.28,0,0,1,.12-1.86,9.73,9.73,0,0,1,.93-2.57A22,22,0,0,0,25,36.35c0-.16.07-.32.1-.48a2.25,2.25,0,0,0,.05-.22v-.81l-.06-.52C25.08,34,25,33.57,25,33.2c-.08-.56-.15-1.12-.22-1.68-.19-1.46-.39-3-.62-4.46a3,3,0,0,0-2-2.32c-.5-.2-.69-.46-.64-.91.06-.71.1-1.44.1-2.26a2.61,2.61,0,0,0-1.89-2.46,1.74,1.74,0,0,0-1.73.34,9.12,9.12,0,0,0-.73.76c-.15.16-.28.23-.4.21s-.2-.1-.28-.27L16.47,20A12.75,12.75,0,0,1,16,18.79c-.24-.7-.48-1.42-.71-2.11-.32-1-.65-2-1-3a1.46,1.46,0,0,1,0-1.07c.48-1.33,1-2.75,1.42-4.19a2.28,2.28,0,0,0,0-1.21A1,1,0,0,0,15,6.49a1.38,1.38,0,0,0-1.13.1,5.65,5.65,0,0,0-.62.35l-.34.21-.06,0,0-.06-.12-.46c-.08-.31-.16-.61-.25-.9l-.06-.15A4.65,4.65,0,0,0,12,4.51a3.6,3.6,0,0,0-.62-.68l-.28-.28h-.38C9.5,3.93,9.35,4.8,9.2,5.73l0,.17a14.23,14.23,0,0,0,.07,4c0,.22,0,.43.07.65.09.81.15,1.49.19,2.12a1.42,1.42,0,0,1-.12.54c-.16.45-.32.9-.49,1.35-.34.92-.69,1.87-1,2.81a6.06,6.06,0,0,0-.26,1.73,6.33,6.33,0,0,1-.8,2.75,7.79,7.79,0,0,0-1.06,4.34,2.27,2.27,0,0,1-.47,1.57,8.23,8.23,0,0,0-1.42,3Z"/><path class="cls-2" d="M16.12,49.69h0l-.42,0a6.61,6.61,0,0,1-1.08-.12c-.53-.13-1.06-.29-1.56-.43s-1-.3-1.53-.42a6.14,6.14,0,0,1-2.93-1.82.91.91,0,0,1-.26-.54c0-.22,0-.43,0-.64a7.61,7.61,0,0,0-.1-1.09l-.09-.46a4,4,0,0,0-.77-2A9.09,9.09,0,0,1,5.4,38.51c-.47-1.53-1-3.09-1.44-4.6-.2-.64-.41-1.29-.61-1.94l0-.06V30.68a8.76,8.76,0,0,1,1.49-3.17,1.81,1.81,0,0,0,.39-1.26,8.17,8.17,0,0,1,1.1-4.58,5.92,5.92,0,0,0,.75-2.56,6.57,6.57,0,0,1,.28-1.86c.31-.95.66-1.9,1-2.82l.49-1.35a1.11,1.11,0,0,0,.09-.36c0-.63-.1-1.3-.18-2.1,0-.22-.05-.43-.07-.65a14.4,14.4,0,0,1-.07-4.15l0-.16a2.68,2.68,0,0,1,1.85-2.58l.09,0h.74l.15.16.29.28a4.26,4.26,0,0,1,.69.77A4.91,4.91,0,0,1,13,5.47l0,.15c.08.24.15.48.22.74a2.71,2.71,0,0,1,.37-.21,2.27,2.27,0,0,1,1-.23,1.63,1.63,0,0,1,1.63,1.19,2.81,2.81,0,0,1,0,1.46c-.44,1.45-.95,2.87-1.43,4.21a1.08,1.08,0,0,0,0,.77c.35,1,.68,2,1,3,.23.69.46,1.41.7,2.11.12.35.27.7.42,1.05l.57-.59a2.29,2.29,0,0,1,1.58-.6,2.36,2.36,0,0,1,.8.14,3.1,3.1,0,0,1,2.24,2.93c0,.82,0,1.57-.11,2.29,0,.22,0,.3.32.41A3.48,3.48,0,0,1,24.71,27c.23,1.48.43,3,.62,4.47.07.55.15,1.11.22,1.67.05.38.1.76.14,1.13,0,.18.07.55.07.55v.88L25.7,36c0,.15-.07.31-.1.46a22.64,22.64,0,0,1-2.45,6.37,9.14,9.14,0,0,0-.9,2.44,8.43,8.43,0,0,0-.1,1.76v.64a1.12,1.12,0,0,1-.91,1.15l-.63.19c-.4.12-.82.25-1.26.34s-1.08.19-1.61.26l-.68.11h-.94Z"/><path class="cls-3" d="M10.72,3.46h.41a7,7,0,0,1,.92,1,5.8,5.8,0,0,1,.53,1.26c.14.43.24.86.37,1.36.37-.22.66-.41,1-.56a1.24,1.24,0,0,1,1.86.67,2.37,2.37,0,0,1,0,1.24c-.42,1.41-.92,2.8-1.42,4.18a1.46,1.46,0,0,0,0,1.05c.58,1.69,1.13,3.4,1.7,5.09.15.46.36.91.55,1.35s.35.32.59.05.47-.51.73-.76A1.8,1.8,0,0,1,19.74,19a2.68,2.68,0,0,1,1.93,2.51c0,.75,0,1.5-.11,2.25,0,.46.16.69.61.87A3,3,0,0,1,24.25,27c.32,2,.57,4.09.84,6.14.07.55.14,1.1.2,1.64v.82l-.15.7a22.41,22.41,0,0,1-2.41,6.25,9.2,9.2,0,0,0-.93,2.55,12.81,12.81,0,0,0-.12,2.48.65.65,0,0,1-.54.72c-.62.17-1.22.39-1.85.52s-1.51.25-2.27.36H16.2a9.36,9.36,0,0,1-1.42-.14c-1-.25-2-.59-3.09-.84A5.65,5.65,0,0,1,9,46.53a.49.49,0,0,1-.13-.28,14.9,14.9,0,0,0-.14-1.77,5.15,5.15,0,0,0-1-2.68A9.12,9.12,0,0,1,6,38.35C5.28,36.16,4.58,34,3.9,31.81V30.72a8.16,8.16,0,0,1,1.42-3,2.25,2.25,0,0,0,.46-1.54,7.85,7.85,0,0,1,1.06-4.36,6.34,6.34,0,0,0,.8-2.74,6.06,6.06,0,0,1,.26-1.74c.45-1.4,1-2.77,1.49-4.16a1.39,1.39,0,0,0,.11-.52c-.05-.71-.11-1.42-.19-2.12a17.14,17.14,0,0,1-.14-4.69C9.34,4.87,9.43,3.87,10.72,3.46Z"/><path class="cls-4" d="M16.87,49.14A22.08,22.08,0,0,1,14.41,49,22.21,22.21,0,0,1,12,48.26c-.36-.11-.71-.21-1.06-.34a6.37,6.37,0,0,1-2.07-1.54.17.17,0,0,1-.05-.16c.24-.45,0-.9,0-1.34-.08-.61-.28-1.21-.38-1.82a3.63,3.63,0,0,0-.91-1.6,9.55,9.55,0,0,1-1.77-3.81c-.25-.95-.59-1.87-.9-2.81s-.57-1.61-.79-2.43a4.57,4.57,0,0,1,.49-3.56c.34-.6.72-1.16,1.08-1.74A2.47,2.47,0,0,0,5.81,26c0-.22,0-.45,0-.67a6.92,6.92,0,0,1,.64-2.66,21.51,21.51,0,0,0,1-2.32,10.63,10.63,0,0,0,.27-1.78A10.67,10.67,0,0,1,8,16.8c.33-1.08.74-2.15,1.14-3.22a6.53,6.53,0,0,0,.35-.7,2.12,2.12,0,0,0,0-.71c-.06-.64-.12-1.28-.19-1.92s-.18-1.38-.22-2.07a9.38,9.38,0,0,1,0-1.59c.07-.68.21-1.35.34-2a1.87,1.87,0,0,1,1.42-1.16A1.23,1.23,0,0,1,11.91,4a7.41,7.41,0,0,1,.93,2.47c.11.55.14.55.64.19A1.77,1.77,0,0,1,15,6.29a1.18,1.18,0,0,1,.89.91,2,2,0,0,1,.07.94c-.23.87-.52,1.74-.81,2.6s-.58,1.48-.85,2.22a.48.48,0,0,0,.05.33c.23.59.49,1.17.69,1.77.32.9.61,1.81.88,2.73.14.45.19.92.35,1.37a5.66,5.66,0,0,0,.5,1c.11.21.26.17.4,0,.31-.33.61-.67.94-1a1.94,1.94,0,0,1,1.8-.19,3,3,0,0,1,1.7,1.67,3.18,3.18,0,0,1,.13,1.06c0,.79-.11,1.57-.13,2.36,0,.13.2.33.36.39a3.41,3.41,0,0,1,2.26,2.12,13.22,13.22,0,0,1,.38,2c.1.65.2,1.31.28,2s.17,1.46.24,2.19.15,1.6.2,2.4a3.63,3.63,0,0,1-.08.73,19,19,0,0,1-1.62,5c-.36.82-.92,1.57-1.28,2.39a8.18,8.18,0,0,0-.58,2,12.81,12.81,0,0,0,0,2,3.17,3.17,0,0,1-.07.61.32.32,0,0,1-.19.22,8.59,8.59,0,0,1-2.81.75C18.06,48.94,17.47,49.05,16.87,49.14ZM18,43.22c.47.07.95.15,1.44.2A4.14,4.14,0,0,0,21.58,43a2.29,2.29,0,0,0,1-.75,22.73,22.73,0,0,0,1-2.3,15.53,15.53,0,0,0,1.26-4.06,7.67,7.67,0,0,0,.1-1.35c0-.58-.14-1.15-.2-1.72s-.11-1.26-.19-1.89c-.16-1.14-.32-2.29-.54-3.42a5.28,5.28,0,0,0-.52-1.42A3.68,3.68,0,0,0,22,24.8a1.41,1.41,0,0,0-.77-.08c-.49.05-.65.44-.78.75-.25.6-.37,1.24-.61,1.84s-.6,1.4-.91,2.1c-.16.37-.34.74-.51,1.11a.93.93,0,0,0,0,.24l.3-.12a1.54,1.54,0,0,0-.05.17c-.09.43-.37.84-.06,1.28a.41.41,0,0,0,.59.11,2.77,2.77,0,0,0,.43-.53c.17-.25.43-.52.18-.81a1,1,0,0,0-1-.35s-.06,0-.1,0,.07-.08.1-.08a4.43,4.43,0,0,1,.63,0,.69.69,0,0,1,.65.95,7.49,7.49,0,0,1-.42.72.76.76,0,0,1-.94.36c-.37-.1-.37-.39-.41-.65,0,0,0-.06,0-.09a.77.77,0,0,0,0,.61.87.87,0,0,0,1,.25c.54-.18.77-.63,1-1a5.42,5.42,0,0,0,.41-1.06s.06,0,.08,0a1.18,1.18,0,0,0,.11-.19s0-.08,0-.12a.28.28,0,0,0,.09.07c.08,0,.16,0,.22,0s.05-.11,0-.16a1,1,0,0,0-.13-.22.57.57,0,0,1,0-.14l.13.07.25.13c0-.08,0-.16,0-.24l0-.11h.08l.34-.07a.85.85,0,0,1,.22,0,.16.16,0,0,1,0,.11,1,1,0,0,1-.2.38c-.41.32-.45.87-.94,1.14a.11.11,0,0,0,0,.06,2.79,2.79,0,0,1-.94,1.38,1.39,1.39,0,0,1-1.33.34,1.19,1.19,0,0,1-.87-.95c0-.13,0-.26.05-.38a5,5,0,0,1,.58-2.06c.11-.25.27-.49.4-.74a.4.4,0,0,0,0-.11h-.1a.72.72,0,0,0-.44.67s-.09.12-.12.12c-.41-.08-.48.21-.63.41s-.16.13-.22.11c-.39-.11-.47-.12-.31.3a8,8,0,0,1,.7,2.9c0,.35,0,.7-.07,1,0,.06-.08.11-.12.17s0-.12,0-.18a1.09,1.09,0,0,0,0-.31c-.08-.45-.19-.89-.26-1.34a6.84,6.84,0,0,0-.89-2.36c-.07-.1-.31-.13-.48-.19-.05.14-.18.28-.15.4.13.67.32,1.32.45,2s.13,1.08.18,1.62a2.81,2.81,0,0,1,0,.5.49.49,0,0,1-.14-.25,11.06,11.06,0,0,1-.22-1.8c0-.56-.7-.9-.49-1.49,0,0,0-.07-.05-.08a.2.2,0,0,0-.13,0,.94.94,0,0,0-.12.09v-.17a5.25,5.25,0,0,0,.06-.79c0-.07-.11-.15-.17-.22l-.16.18-.06.09c0-.37-.09-.78-.15-1.18,0-.06-.12-.11-.19-.16s-.07,0-.07.07a4.2,4.2,0,0,1,0,.51c-.08.32-.18.63-.27.95l-.11,0A1,1,0,0,1,14,30a1.24,1.24,0,0,0,.1-1,2.53,2.53,0,0,0-.18-.37c.33-.14,0-.38,0-.54s-.28-.37-.43-.56a6.19,6.19,0,0,0,.21,1,.87.87,0,0,1-.18.89c0-.33,0-.68-.1-1-.11-.53-.31-.75-.59-.79,0,.41.08.84.11,1.27a1,1,0,0,1,0,.17h-.08a1.21,1.21,0,0,1,0-.18,6.51,6.51,0,0,0-.13-.77c0-.11-.07-.55-.39-.12,0,.06-.14.15-.13.21.08.4.18.8.27,1.2-.11,0-.16-.09-.18-.16-.07-.25-.13-.5-.21-.75,0-.05-.08-.13-.13-.14s-.69.44-.71.56a5.94,5.94,0,0,1-.24,1c-.29.74-1,1.05-1.76,1.38a1.18,1.18,0,0,1-.34,0L9,31.17l.15-.07a2.53,2.53,0,0,0,1.58-2c0-.21-.09-.26-.31-.23-.53.08-1,.14-1.58.2,0,0-.12,0-.18,0s.1-.11.16-.12l.47-.07a3.83,3.83,0,0,0,2.43-1.07c.13-.14.23-.3-.05-.43a3.05,3.05,0,0,1-.5-.28c-.25-.22-.48-.46-.72-.68,0,0,1.14.79,1.38.66a5.48,5.48,0,0,0,1,0,3.82,3.82,0,0,0,2.59-1.21,7.54,7.54,0,0,0,.87-1,2.3,2.3,0,0,0,.29-1.58c0-.22-.17-.31-.44-.29s-.58.05-.73.67c0-.44-.08-.57-.4-.56-.64,0-1.28,0-1.92.08a3.12,3.12,0,0,0-.44.05.82.82,0,0,1-.22,0,1.11,1.11,0,0,1-.16-.07c0,.05,0,.12,0,.16a1.86,1.86,0,0,0,1,.87,2.28,2.28,0,0,0,.9,0,1.25,1.25,0,0,0,.86-.31,1.54,1.54,0,0,1,.37-.23,1.94,1.94,0,0,1-.23.26,1.85,1.85,0,0,1-.46.33,2.29,2.29,0,0,1-2.59-.73c-.19-.26-.32-.57-.77-.59a3.86,3.86,0,0,1-.9-.16,1.3,1.3,0,0,0-1.65.67s0,.06-.06.1l-.37.56a2,2,0,0,0-.36.34c-.18.28-.26.66-.52.86s-.28.54-.6.74a2.49,2.49,0,0,0-.69.9c-.45.69-.93,1.38-1.32,2.1a4.2,4.2,0,0,0-.58,1.59,7,7,0,0,0,.25,2.08c.2.77.55,1.51.82,2.26.31.91.67,1.82.89,2.74A9.94,9.94,0,0,0,7.64,41a2.27,2.27,0,0,0,1.27,1.07,8.68,8.68,0,0,0,2.64.36,4,4,0,0,0,2.3-.68,2.06,2.06,0,0,1,.33-.17,1.32,1.32,0,0,1-.32.44,3,3,0,0,1-1.88.75,16.38,16.38,0,0,1-1.85-.1H10a7.91,7.91,0,0,0-.82.16.28.28,0,0,0-.16.22c0,.18.11.36.13.54.11.87.21,1.74.31,2.62a.33.33,0,0,0,.07.16c.52.39,1,.8,1.58,1.15a7.4,7.4,0,0,0,1,.38,8,8,0,0,0,3.11.77,23.92,23.92,0,0,0,3-.11,22.22,22.22,0,0,0,2.53-.51c.63-.13.79-.3.71-.85a7.65,7.65,0,0,1,.07-2.82c0-.25.13-.5.18-.75s0-.24-.22-.19a2.63,2.63,0,0,1-.56.1c-.4,0-.81,0-1.21,0A2.66,2.66,0,0,1,18,43.22ZM13.49,14.27a1.1,1.1,0,0,0-.06-.18c-.15-.15-.2-.26.11-.27.05,0,.14-.2.12-.22s-.32-.22-.49-.33l-.26-.13a2.3,2.3,0,0,1,.28.06,1.61,1.61,0,0,0,.36.1c.06,0,.13-.11.2-.16-.22-.16.28-.4-.08-.54,0,0,0,0,0,0,.23,0,.36-.1.2-.33,0,0,.05,0,.06-.06s.21-.29.17-.38c-.2-.35-.21-.36.12-.37l.06-.41s-.09-.24-.06-.25c.27-.12,0-.12,0-.18a.74.74,0,0,1-.13-.21,1.2,1.2,0,0,1,.2,0l.4.12c-.07-.11-.14-.23-.22-.34l-.05,0a1,1,0,0,1-.08-.11c.05,0,.11,0,.16,0a3.4,3.4,0,0,1,.34.12,3.74,3.74,0,0,1-.29-.25.82.82,0,0,1-.12-.2l.23,0,.22,0a1,1,0,0,0-.15-.19c-.06,0-.15,0-.21-.06a.69.69,0,0,1-.17-.17.82.82,0,0,1,.21,0,2.42,2.42,0,0,1,.35.12l.14,0c0-.06,0-.13-.09-.16s-.3-.15-.44-.24,0-.07-.07-.1.11-.06.15,0,.2.1.31.14a1.49,1.49,0,0,0,.25.07,1.74,1.74,0,0,0-.13-.2,1.5,1.5,0,0,0-.24-.2.48.48,0,0,1-.09-.11.92.92,0,0,1,.16,0c.15,0,.29.06.43.09-.07-.12-.15-.24-.21-.36s0-.08,0-.12h.34c-.05-.06-.08-.14-.14-.18-.29-.21-.1-.23.22-.41.07,0,0-.19,0-.22s0-.28-.06-.35-.09-.19-.22-.31a1.69,1.69,0,0,0-.58-.16,1.15,1.15,0,0,0-.57.16,5.4,5.4,0,0,0-.92.79A12.53,12.53,0,0,0,12,8.91a9.14,9.14,0,0,0-.83,1.41c-.23.48-.38,1-.61,1.47s-.6,1-.84,1.57c-.32.7-.57,1.43-.86,2.15a7.88,7.88,0,0,0-.6,2.9c0,.08-.1.16-.1.24a3.22,3.22,0,0,1,0,.62c-.17.66-.36,1.31-.58,2-.16.49-.4,1-.58,1.44-.26.71-.54,1.41-.75,2.13a4,4,0,0,0,0,1,.44.44,0,0,0,0,.22s.12-.09.16-.14c.25-.29.5-.57.72-.87a1,1,0,0,0,.21-.44c0-.06-.18-.14-.27-.21A.38.38,0,0,1,7,24.29c.06,0,.14,0,.18,0,.24.16.42.1.52-.16,0-.05,0-.11,0-.15.27-.32.55-.63.8-1a1.86,1.86,0,0,1,1.71-.53c.36,0,.73,0,1.09.06.08,0,.65.22.87.24.68,0,1.36.05,2,.05.25,0,1.36-.11,1.52-.38s.3-.52.44-.78a1.67,1.67,0,0,0,.08-.32,1.55,1.55,0,0,1,.14-.29c.07-.11.25-.24.22-.3-.12-.28-.32-.53-.46-.81a8.1,8.1,0,0,1-.5-1.13c-.11-.36-.14-.74-.23-1.11s-.22-.52-.31-.79S15,16.31,14.9,16s-.29-.77-.44-1.15l-.18-.46c-.2-.41-.48.72-.51.75s0,.11-.09.2a5.11,5.11,0,0,0-.13.53,12.87,12.87,0,0,0-.34,1.36c-.06.37,0,.76,0,1.14a8.84,8.84,0,0,1-.31,1.33c-.07.23-.06.34.26.27,0,0,.11,0,.16.05s0,.09-.1.11c-.26.09-.52.2-.79.27-.72.19-1.43.35-2.15.52a1.5,1.5,0,0,1-.37,0l.28-.26s.06,0,.09,0c.52-.12,1.06-.21,1.56-.38.13-.05.71.09.4-.38,0,0,0,0,0,0,.37-.1.26-.42.36-.64,0,0-.06-.12-.11-.23s.33-.18,0-.36c0,0,0-.06,0-.07.38-.17.13-.49.19-.73s0-.66.07-1A.76.76,0,0,0,12.6,16c0-.05,0-.13-.08-.19l.26.07.21.08c0-.08,0-.18-.07-.23s-.32-.26-.48-.39a1.83,1.83,0,0,1,.53.17.47.47,0,0,0,.17,0c0-.05,0-.13,0-.16a5,5,0,0,1-.46-.46l.21.06.4.1-.17-.35s-.07,0-.09-.06l-.21-.24c.11,0,.41.15.43.14a.42.42,0,0,0,.14-.09l-.19-.15a1.56,1.56,0,0,1-.2-.16S13.41,14.26,13.49,14.27Zm1.43,13.64H15a1,1,0,0,1,.05-.3c.08-.19.11-.45.28-.57a2,2,0,0,1,2.06.36c.12.14.29.36.24.48A4.87,4.87,0,0,1,17,29.06a.83.83,0,0,1-.94.35c-.22-.07-.42-.17-.63-.25a.32.32,0,0,0-.14,0s0,.09,0,.11a.81.81,0,0,0,.24.17,1.44,1.44,0,0,0,1.42,0,2.32,2.32,0,0,0,1.25-1.62c0-.14,0-.29.07-.44s.06-.19.1-.31a.4.4,0,0,0,.16.07.24.24,0,0,0,.13,0c.05-.18.09-.36.13-.55,0,0,0,0,0-.06.49-.41.51-.49.18-1L19,25.4l.39.05-.18-.25a.35.35,0,0,1,0-.11h.34l-.12-.17a1.27,1.27,0,0,1-.11-.13,1.15,1.15,0,0,1-.14-.17l.27.05.37.13c-.06-.13-.12-.25-.19-.37a.54.54,0,0,0-.12-.09l-.12-.15h.2a.33.33,0,0,1,.1,0l0-.22.22.06a1.48,1.48,0,0,0,.13.08h.16s0-.09-.05-.12a3.75,3.75,0,0,0-.35-.35l.44.14c.18.07.37.19.25-.14,0,0,.06-.07.1-.1s.1-.06.11-.1a1,1,0,0,0,0-.18c.06,0,.2.21.18.28-.08.27-.19.53-.27.8,0,0,0,.12.05.12.47,0,.62-.1.57-.5s.08-.67-.35-.86c0,0,0-.08,0-.12L21,23a.35.35,0,0,1,.11.1.85.85,0,0,0,0-.17c0-.11-.13-.28-.09-.32a.36.36,0,0,0,0-.6s0-.09-.07-.13a1,1,0,0,1,.18,0l.15.11c-.06-.27-.32-.51,0-.73,0,0,0-.07,0-.11a3.66,3.66,0,0,1-.18-.46c0-.1,0-.23,0-.31a2.65,2.65,0,0,0-1.31-1.17,1.4,1.4,0,0,0-1.57.26c-.19.22-.37.44-.54.67s-.56.71-.79,1.08a3.57,3.57,0,0,0-.38.93c0,.14-.2.37.09.46s.51,1,.43,1.34a6.13,6.13,0,0,1-1.69,2.52c-.1.07-.23.17-.25.27C15,27.17,15,27.54,14.92,27.91ZM12.42,6.45a4.7,4.7,0,0,0-.12-.51c-.21-.53-.43-1.06-.67-1.58-.08-.15-.13-.37-.3-.47a.64.64,0,0,0-.61-.13,1,1,0,0,0-.79.65,7.2,7.2,0,0,0-.37,1.38,1.51,1.51,0,0,0-.06.36A2.23,2.23,0,0,0,9.39,7a6.21,6.21,0,0,0,.08,1.4c0,.74.14,1.49.23,2.23a5.54,5.54,0,0,0,.2,1.15s1-2.16,1.11-2.32a6.15,6.15,0,0,1,.59-.88c.19-.25,1.23-1.05,1-1.46C12.52,6.87,12.4,6.45,12.42,6.45Zm2.81,21.77a2.91,2.91,0,0,0,.23.55.76.76,0,0,0,1.28.18,3.17,3.17,0,0,0,.57-.65c.33-.51.16-.84-.5-1a5.88,5.88,0,0,0-.7-.16C15.57,27,15.14,27.47,15.23,28.22Z"/><path class="cls-4" d="M12,47.46c-.42-.2-.87-.4-1.3-.63a4.43,4.43,0,0,1-.65-.41c-.05,0-.05-.11-.08-.16a.78.78,0,0,1,.22,0l1.68,1c.06,0,.15,0,.22.06a.33.33,0,0,1,.1.06Z"/><path class="cls-4" d="M19.09,42c.53,0,1.06.13,1.58.14a8.08,8.08,0,0,0,1.1-.15A2.13,2.13,0,0,1,22,42S22,42,22,42a.65.65,0,0,1-.21.07,17,17,0,0,1-1.75.17,5.29,5.29,0,0,1-1-.22Z"/><path class="cls-4" d="M6,33.85l1,.27.74.2.1.06s0,.06-.07,0A3.79,3.79,0,0,1,6,33.85Z"/><path class="cls-4" d="M6.34,34.61l1.48.21s.07.06.1.08S7.83,35,7.8,35l-1.49-.27Z"/><path class="cls-4" d="M7.2,35.6l-.75-.33a.15.15,0,0,1,0-.07l.07,0H6.6l1.5.4s.06.05.09.07-.09,0-.14,0l-.81-.16Z"/><path class="cls-4" d="M18.81,42.86h1.64s.06,0,.09,0-.05.06-.07.06C19.88,43,19.27,43.16,18.81,42.86Z"/><path class="cls-4" d="M8.68,37.2l-1.34-.29,0-.09,1.35.23Z"/><path class="cls-4" d="M11.11,46.42a.68.68,0,0,1-.15,0L10.22,46a.69.69,0,0,1-.13-.11.47.47,0,0,1-.07-.12c.05,0,.11,0,.15,0l.86.5.12.06Z"/><path class="cls-4" d="M11.21,45.84l-1-.49a1,1,0,0,1-.17-.12,1.42,1.42,0,0,1-.12-.13.62.62,0,0,1,.2,0l1,.56.12.07Z"/><path class="cls-4" d="M18.62,25.59a1.85,1.85,0,0,1,.19.27c-.1-.05-.27-.22-.37-.27s-.31-.12-.49-.25A1.83,1.83,0,0,1,18.62,25.59Z"/></svg>